<svg id="Ebene_1" data-name="Ebene 1" xmlns="http://www.w3.org/2000/svg" viewBox="0 0 254.06 63.67"><defs><style>.cls-1{fill:#1d1d1b;}</style></defs><path class="cls-1" d="M271.78,84.9v6.87l-.71,0a.6.6,0,0,0-.56.36,1.15,1.15,0,0,0-.07.39v.15H274c.46,0,.65-.29.6-.86l-1.28-.11V86a5.62,5.62,0,0,1,1.22-.83,3.06,3.06,0,0,1,1.29-.26c1.24,0,1.86.78,1.86,2.33v4.56l-.69,0a.6.6,0,0,0-.56.36,1.15,1.15,0,0,0-.07.39v.15h3.51c.45,0,.65-.29.59-.86l-1.27-.11V87.13a3.64,3.64,0,0,0-.88-2.67,3.06,3.06,0,0,0-2.25-.87,4.2,4.2,0,0,0-2.8,1.33h-.05l-.2-1.28-2.58.33c0,.52.17.8.5.84Zm-27-3.46V91.77l-.71,0a.55.55,0,0,0-.53.36,1,1,0,0,0-.09.39v.15H247c.45,0,.65-.29.59-.86l-1.32-.11V86a5.26,5.26,0,0,1,1.12-.8,2.67,2.67,0,0,1,1.24-.26c1.34,0,2,.8,2,2.4v4.47l-.66,0a.59.59,0,0,0-.55.36,1.15,1.15,0,0,0-.07.39v.15h3.54c.45,0,.65-.29.59-.86l-1.34-.11V87.26a3.77,3.77,0,0,0-.93-2.78,3.14,3.14,0,0,0-2.3-.89,3.76,3.76,0,0,0-2.64,1.22V80.12l-2.89.35c0,.55.17.85.5.88Zm-17.42,9a1.28,1.28,0,0,1,.51-1.08,2.35,2.35,0,0,1,1.47-.38,4,4,0,0,1,1.75.37V91a3.23,3.23,0,0,1-2.15.83,1.61,1.61,0,0,1-1.16-.39,1.36,1.36,0,0,1-.42-1.07m-.81-1.68a2.42,2.42,0,0,0-.83,1.86,2.22,2.22,0,0,0,.73,1.76,3.15,3.15,0,0,0,2.14.64,3.76,3.76,0,0,0,2.57-1,1.31,1.31,0,0,0,1.44,1c.8,0,1.19-.3,1.19-.91l-1.18-.14V86.83a3.16,3.16,0,0,0-.77-2.29,3.61,3.61,0,0,0-1-.65,4,4,0,0,0-1.67-.3,3.85,3.85,0,0,0-2.12.53,1.54,1.54,0,0,0-.81,1.32.87.87,0,0,0,.34.77,1.23,1.23,0,0,0,.85.17,2,2,0,0,1,.46-1.2,1.57,1.57,0,0,1,1.28-.52c1.27,0,1.9.76,1.9,2.26v1.24a7.79,7.79,0,0,0-1.79-.2,4.07,4.07,0,0,0-2.75.75m-18.85-.39a5,5,0,0,1,.62-2.64,2,2,0,0,1,1.77-1,1.86,1.86,0,0,1,1.75,1,5.37,5.37,0,0,1,.59,2.66,4.71,4.71,0,0,1-.63,2.59,2,2,0,0,1-1.75,1,1.94,1.94,0,0,1-1.74-1,5,5,0,0,1-.61-2.62m-.51-3.4a5.35,5.35,0,0,0-1.08,3.54,5.14,5.14,0,0,0,1,3.36A3.55,3.55,0,0,0,210,93a3.65,3.65,0,0,0,3-1.31,5.35,5.35,0,0,0,1.07-3.6,4.66,4.66,0,0,0-1.11-3.38,3.69,3.69,0,0,0-2.7-1.09,3.74,3.74,0,0,0-3,1.33M199,87.15a3.87,3.87,0,0,1,.81-1.85,1.84,1.84,0,0,1,1.41-.65,1.43,1.43,0,0,1,1.26.65,3.58,3.58,0,0,1,.48,1.85Zm-.55-2.23a5.2,5.2,0,0,0-1.17,3.58,4.87,4.87,0,0,0,1,3.36A3.57,3.57,0,0,0,201,93a4.58,4.58,0,0,0,2.26-.53c.66-.36,1-.72,1-1.08a.56.56,0,0,0-.25-.53,3.94,3.94,0,0,1-2.51.94c-1.76,0-2.65-1.08-2.65-3.24a4.17,4.17,0,0,1,0-.44h5.59v-.92a4.15,4.15,0,0,0-.74-2.54,2.85,2.85,0,0,0-2.45-1,3.67,3.67,0,0,0-2.86,1.33m-51.64-.16h1.36V90a3.91,3.91,0,0,0,.5,2.15,2,2,0,0,0,1.81.77,4,4,0,0,0,1.79-.46c.61-.31.92-.64.92-1a.66.66,0,0,0-.11-.36.47.47,0,0,0-.23-.2,4,4,0,0,1-1.05.64,3.24,3.24,0,0,1-1.05.15.88.88,0,0,1-.84-.42,2.83,2.83,0,0,1-.23-1.33v-5.2h2.86c.34-.09.49-.41.45-1h-3.31V81.36l-1.51.29v2.16h-.75c-.44,0-.64.32-.61,1m-6.18,7.36a1.08,1.08,0,0,0-.09.4v.14h4c.43,0,.62-.29.57-.86l-1.77-.11V84.76H145c.45,0,.65-.31.61-1h-2.24v-.93c0-1.42.36-2.13,1.09-2.13a.86.86,0,0,1,.63.26,1.16,1.16,0,0,1,.27.74c.66,0,1-.31,1-.94a.84.84,0,0,0-.46-.77,2.26,2.26,0,0,0-1.17-.24,2.63,2.63,0,0,0-2.1.93,3.74,3.74,0,0,0-.77,2.48v.6h-.66a1,1,0,0,0-.36.07c-.16.1-.25.39-.25.88h1.27v7l-.68,0a.58.58,0,0,0-.53.36M99.22,81.38V91.73l-.72,0a.62.62,0,0,0-.55.36,1.25,1.25,0,0,0-.07.4v.14h3.54c.46,0,.65-.29.59-.86l-1.27-.11V80.07l-2.88.36c0,.54.17.82.5.86Zm-5.62,0V91.73l-.71,0a.63.63,0,0,0-.56.36,1.25,1.25,0,0,0-.07.4v.14H95.8c.46,0,.65-.29.59-.86l-1.27-.11V80.07l-2.88.36c0,.54.17.82.5.86ZM69.07,87.11a3.82,3.82,0,0,1,.81-1.85,1.82,1.82,0,0,1,1.41-.66,1.42,1.42,0,0,1,1.26.66A3.55,3.55,0,0,1,73,87.11Zm-.55-2.24a5.22,5.22,0,0,0-1.17,3.58,4.88,4.88,0,0,0,1,3.37,3.57,3.57,0,0,0,2.77,1.11,4.58,4.58,0,0,0,2.26-.54c.65-.36,1-.72,1-1.07a.6.6,0,0,0-.25-.54,4,4,0,0,1-2.51,1c-1.77,0-2.65-1.08-2.65-3.24A4.4,4.4,0,0,1,69,88h5.59v-.91a4.12,4.12,0,0,0-.75-2.55,2.83,2.83,0,0,0-2.44-1,3.69,3.69,0,0,0-2.86,1.32M51.49,65a10.87,10.87,0,0,0,.95-4.62,9.25,9.25,0,0,0-2.69-6.78,15,15,0,0,0-3.18-2.43A35.47,35.47,0,0,0,42.3,49a36.84,36.84,0,0,1-4-1.85,11,11,0,0,1-2.62-1.89,5.72,5.72,0,0,1-1.43-2.23,8.92,8.92,0,0,1-.42-2.86,7,7,0,0,1,.45-2.56,5.35,5.35,0,0,1,1.3-1.95,5.83,5.83,0,0,1,2.09-1.25A8.21,8.21,0,0,1,40.49,34a6.19,6.19,0,0,1,2.9.61,5.44,5.44,0,0,1,1.89,1.58,6.13,6.13,0,0,1,1,2.21,10.17,10.17,0,0,1,.31,2.52A5,5,0,0,0,49.74,40a3.15,3.15,0,0,0,1.15-2.65,4.38,4.38,0,0,0-.67-2.31,6.51,6.51,0,0,0-2-1.95A11,11,0,0,0,45,31.77a17.2,17.2,0,0,0-4.34-.5,16.35,16.35,0,0,0-4.76.66,11.43,11.43,0,0,0-3.78,1.93A8.72,8.72,0,0,0,29.67,37a9.54,9.54,0,0,0-.89,4.18,12.3,12.3,0,0,0,.61,4,9.86,9.86,0,0,0,1.86,3.23A13.8,13.8,0,0,0,34.39,51a29.33,29.33,0,0,0,4.42,2.22,37,37,0,0,1,4,1.88A11.53,11.53,0,0,1,45.41,57a5.76,5.76,0,0,1,1.41,2.11,7.42,7.42,0,0,1,.43,2.64,6.34,6.34,0,0,1-2.06,5.09,8.55,8.55,0,0,1-5.74,1.77,6.87,6.87,0,0,1-3.27-.71A6.51,6.51,0,0,1,33.94,66a8.77,8.77,0,0,1-1.32-2.77,14.59,14.59,0,0,1-.51-3.27,4,4,0,0,0-2.92,1,3.59,3.59,0,0,0-1,2.66,7.08,7.08,0,0,0,.69,3.13,6.52,6.52,0,0,0,2.06,2.42,10.66,10.66,0,0,0,3.41,1.56,17.9,17.9,0,0,0,4.69.56,19.44,19.44,0,0,0,5.54-.74,12,12,0,0,0,4.23-2.14A9.53,9.53,0,0,0,51.49,65M57.3,82a7.22,7.22,0,0,0-1.44,4.79,7,7,0,0,0,1.36,4.52A4.58,4.58,0,0,0,61,92.93a7.08,7.08,0,0,0,2.56-.46,3.81,3.81,0,0,0,1.77-1.19V88.11h0l.48,0q.63-.07.63-.81v-.12h-4.1c-.44,0-.63.3-.57.91l2.16.11V91a3.67,3.67,0,0,1-2.56.8c-2.56,0-3.85-1.71-3.85-5.13a7.13,7.13,0,0,1,1-3.94,3.2,3.2,0,0,1,2.87-1.46,3,3,0,0,1,2,.61A2.39,2.39,0,0,1,64,83.71a1.35,1.35,0,0,0,1-.34,1.17,1.17,0,0,0,.34-.86,2,2,0,0,0-1-1.63,4.86,4.86,0,0,0-2.84-.68A5.15,5.15,0,0,0,57.3,82m19.36-26a33.75,33.75,0,0,1-.38,5.35A11.81,11.81,0,0,1,75,65.29a6.05,6.05,0,0,1-2.29,2.36,6.94,6.94,0,0,1-3.46.79,7,7,0,0,1-3.47-.79,6.1,6.1,0,0,1-2.31-2.36,11.8,11.8,0,0,1-1.3-3.87,32.52,32.52,0,0,1-.39-5.35,32,32,0,0,1,.39-5.32,11.89,11.89,0,0,1,1.28-3.82,5.89,5.89,0,0,1,2.29-2.3,8.09,8.09,0,0,1,6.93,0A5.87,5.87,0,0,1,75,46.93a11.66,11.66,0,0,1,1.27,3.82,30.85,30.85,0,0,1,.4,5.32m2,11.44Q82,63.76,82,56.07a22.86,22.86,0,0,0-.87-6.67,12.6,12.6,0,0,0-2.5-4.71,10.07,10.07,0,0,0-4-2.79A14.42,14.42,0,0,0,69.32,41Q63,41,59.75,44.71T56.52,56.07a23,23,0,0,0,.86,6.69,12.85,12.85,0,0,0,2.5,4.75,10.14,10.14,0,0,0,4,2.82,14.06,14.06,0,0,0,5.3.94q6.27,0,9.54-3.76m2.61,24.57a2.65,2.65,0,0,0,1-2,2,2,0,0,0-.77-1.7,4.9,4.9,0,0,0-.79-.49c-.24-.11-.67-.3-1.31-.55a8.68,8.68,0,0,1-1.46-.71,1,1,0,0,1-.52-.86,1,1,0,0,1,.48-.85,1.94,1.94,0,0,1,1.19-.32,1.8,1.8,0,0,1,1.17.43,1.31,1.31,0,0,1,.43,1,1.11,1.11,0,0,0,.8-.19.92.92,0,0,0,.35-.79,1.17,1.17,0,0,0-.73-1.13,4.26,4.26,0,0,0-1.88-.39,3.53,3.53,0,0,0-2.1.68,2.22,2.22,0,0,0-1,1.88,2.07,2.07,0,0,0,1,1.82,5.94,5.94,0,0,0,.88.5c.26.12.68.29,1.25.51a5.23,5.23,0,0,1,1.29.66,1,1,0,0,1,.41,1,1.14,1.14,0,0,1-.55,1,2.32,2.32,0,0,1-1.36.35,2.07,2.07,0,0,1-2.1-1.69,1.06,1.06,0,0,0-.76.25.93.93,0,0,0-.31.75,1.34,1.34,0,0,0,.86,1.26,4.37,4.37,0,0,0,2,.48,3.62,3.62,0,0,0,2.57-.85m6.33-7.48a1.42,1.42,0,0,1,1.26.66,3.46,3.46,0,0,1,.47,1.85h-4a3.73,3.73,0,0,1,.81-1.85,1.82,1.82,0,0,1,1.41-.66m.09-1a3.67,3.67,0,0,0-2.86,1.32,5.22,5.22,0,0,0-1.17,3.58,4.83,4.83,0,0,0,1,3.37,3.56,3.56,0,0,0,2.77,1.11,4.58,4.58,0,0,0,2.26-.54c.65-.36,1-.72,1-1.07a.6.6,0,0,0-.25-.54,4,4,0,0,1-2.51,1c-1.77,0-2.65-1.08-2.65-3.24a2.64,2.64,0,0,1,0-.45h5.58v-.91a4.05,4.05,0,0,0-.74-2.55,2.83,2.83,0,0,0-2.44-1M102,67.62h-9.9L108,43.75V41.51H87.08l-.53,7.75h2.29l0-.22c.2-.72.39-1.36.57-1.91a4.91,4.91,0,0,1,.72-1.39,2.73,2.73,0,0,1,1.13-.84,4.9,4.9,0,0,1,1.76-.27h8.52L85.78,68.55v2.18H108l.26-8.83H106l-.26,1.25c-.13.58-.27,1.15-.44,1.69a5.33,5.33,0,0,1-.67,1.42,3.17,3.17,0,0,1-1,1,3,3,0,0,1-1.58.37m2.88,18.13a1,1,0,0,1,.47-.85,1.94,1.94,0,0,1,1.19-.32,1.78,1.78,0,0,1,1.17.43,1.27,1.27,0,0,1,.43,1,1.11,1.11,0,0,0,.8-.19.92.92,0,0,0,.35-.79,1.17,1.17,0,0,0-.73-1.13,4.26,4.26,0,0,0-1.88-.39,3.53,3.53,0,0,0-2.1.68,2.24,2.24,0,0,0-1,1.88,2.07,2.07,0,0,0,1,1.82,5.94,5.94,0,0,0,.88.5c.26.12.68.29,1.25.51a5.05,5.05,0,0,1,1.29.66,1,1,0,0,1,.41,1,1.14,1.14,0,0,1-.55,1,2.32,2.32,0,0,1-1.36.35,2.07,2.07,0,0,1-2.1-1.69,1.06,1.06,0,0,0-.76.25.93.93,0,0,0-.31.75,1.34,1.34,0,0,0,.86,1.26,4.37,4.37,0,0,0,2,.48,3.62,3.62,0,0,0,2.57-.85,2.65,2.65,0,0,0,1-2,2,2,0,0,0-.77-1.7,4.9,4.9,0,0,0-.79-.49c-.24-.11-.67-.3-1.3-.55a8.46,8.46,0,0,1-1.47-.71,1,1,0,0,1-.51-.86m10.55-2.2a3.86,3.86,0,0,0-3.15,1.38,5.24,5.24,0,0,0-1.13,3.5,5.16,5.16,0,0,0,1,3.31,3.34,3.34,0,0,0,2.73,1.19,4.79,4.79,0,0,0,2.25-.54c.69-.36,1-.72,1-1.07a.6.6,0,0,0-.29-.54,3.85,3.85,0,0,1-2.5,1,2.17,2.17,0,0,1-2-1,5.45,5.45,0,0,1,0-5.07,2,2,0,0,1,1.8-1,1.57,1.57,0,0,1,1.28.52,2,2,0,0,1,.44,1.22,1.19,1.19,0,0,0,.81-.22,1,1,0,0,0,.35-.84,1.5,1.5,0,0,0-.71-1.31,3.24,3.24,0,0,0-1.9-.49m8.87-49.28a5.21,5.21,0,0,0,0-3.19,2.88,2.88,0,0,0-.67-1,2.36,2.36,0,0,0-1-.56,4.58,4.58,0,0,0-1.2-.16,4.68,4.68,0,0,0-1.22.16,2.57,2.57,0,0,0-1,.56,2.73,2.73,0,0,0-.66,1,5.42,5.42,0,0,0,0,3.19,2.66,2.66,0,0,0,.66,1,2.47,2.47,0,0,0,1,.57,4,4,0,0,0,1.22.18,3.87,3.87,0,0,0,1.2-.18,2.27,2.27,0,0,0,1-.57,2.79,2.79,0,0,0,.67-1M113.94,70.73h15.49V68.44h-.72a10.74,10.74,0,0,1-1.73-.13,3.51,3.51,0,0,1-1.42-.54,2.88,2.88,0,0,1-1-1.19,4.89,4.89,0,0,1-.36-2v-23H114.5V43.8h.16a11.77,11.77,0,0,1,1.72.13,3.62,3.62,0,0,1,1.42.54,2.7,2.7,0,0,1,1,1.13,4.37,4.37,0,0,1,.36,1.93V64.8a4.4,4.4,0,0,1-.36,1.93,2.56,2.56,0,0,1-1,1.1,3.74,3.74,0,0,1-1.42.49,11.81,11.81,0,0,1-1.72.12h-.72ZM129.65,91.8l-1.34-.11V87.22a3.82,3.82,0,0,0-.94-2.79,3.14,3.14,0,0,0-2.3-.88,3.78,3.78,0,0,0-2.64,1.21V80.07l-2.88.36c0,.55.17.84.5.88l.86.09V91.73l-.7,0a.61.61,0,0,0-.54.36,1.08,1.08,0,0,0-.09.4v.14h3.59c.45,0,.65-.29.59-.86l-1.33-.11V85.91a5.29,5.29,0,0,1,1.13-.8,2.8,2.8,0,0,1,1.24-.26c1.33,0,2,.8,2,2.4v4.48l-.66,0a.64.64,0,0,0-.56.36,1.61,1.61,0,0,0-.07.4v.14h3.55c.45,0,.65-.29.59-.86m6.75-2.54V91a3.18,3.18,0,0,1-2.15.83,1.61,1.61,0,0,1-1.16-.39,1.39,1.39,0,0,1-.41-1.07,1.27,1.27,0,0,1,.5-1.07,2.34,2.34,0,0,1,1.47-.39,4,4,0,0,1,1.75.38m0-2.38v1.23a7.72,7.72,0,0,0-1.79-.2,4,4,0,0,0-2.75.76,2.42,2.42,0,0,0-.83,1.86,2.21,2.21,0,0,0,.74,1.75,3.12,3.12,0,0,0,2.13.65,3.77,3.77,0,0,0,2.57-1A1.32,1.32,0,0,0,137.92,93c.79,0,1.19-.31,1.19-.92l-1.19-.14v-5.1a3.18,3.18,0,0,0-.77-2.3,3.46,3.46,0,0,0-1-.64,4,4,0,0,0-1.67-.3,3.87,3.87,0,0,0-2.12.52,1.57,1.57,0,0,0-.81,1.32.86.86,0,0,0,.34.77,1.3,1.3,0,0,0,.86.18,2,2,0,0,1,.45-1.21,1.57,1.57,0,0,1,1.28-.51c1.27,0,1.9.75,1.9,2.26m15.69-30.81a32.52,32.52,0,0,1-.39,5.35,11.82,11.82,0,0,1-1.26,3.87,6.12,6.12,0,0,1-2.29,2.36,8,8,0,0,1-6.93,0,6.19,6.19,0,0,1-2.32-2.36,12,12,0,0,1-1.29-3.87,31.38,31.38,0,0,1-.4-5.35,30.85,30.85,0,0,1,.4-5.32,11.65,11.65,0,0,1,1.28-3.82,5.82,5.82,0,0,1,2.29-2.3,7.05,7.05,0,0,1,3.46-.78,7.15,7.15,0,0,1,3.47.78,5.78,5.78,0,0,1,2.3,2.3,11.65,11.65,0,0,1,1.28,3.82,30.85,30.85,0,0,1,.4,5.32m2,11.44q3.27-3.75,3.27-11.44a22.86,22.86,0,0,0-.87-6.67,12.74,12.74,0,0,0-2.5-4.71,10.07,10.07,0,0,0-4-2.79,14.47,14.47,0,0,0-5.3-.92q-6.33,0-9.56,3.73t-3.24,11.36a23,23,0,0,0,.87,6.69,12.71,12.71,0,0,0,2.5,4.75,10.14,10.14,0,0,0,4,2.82,14,14,0,0,0,5.29.94q6.28,0,9.54-3.76M184,56a30.55,30.55,0,0,1-.37,5.07,11.88,11.88,0,0,1-1.19,3.68A5.67,5.67,0,0,1,180.37,67a5.86,5.86,0,0,1-3.08.76,7.53,7.53,0,0,1-3.58-.76,5.69,5.69,0,0,1-2.29-2.25,10.92,10.92,0,0,1-1.22-3.67,31.23,31.23,0,0,1-.36-5,32.06,32.06,0,0,1,.36-5.14,10.41,10.41,0,0,1,1.21-3.62,5.46,5.46,0,0,1,2.28-2.14,8,8,0,0,1,3.55-.7,6.37,6.37,0,0,1,3.1.71,5.46,5.46,0,0,1,2.1,2.16A11.25,11.25,0,0,1,183.63,51,30,30,0,0,1,184,56m4.56,6.86a27.69,27.69,0,0,0,.73-6.81,27.32,27.32,0,0,0-.73-6.76,12.93,12.93,0,0,0-2.14-4.7,8.67,8.67,0,0,0-3.48-2.74,12.11,12.11,0,0,0-4.77-.89,9.81,9.81,0,0,0-2.87.39,7.83,7.83,0,0,0-4.07,2.8,13.34,13.34,0,0,0-1.39,2.27h-.21l-.56-4.93h-9.53V43.8h.69a11.67,11.67,0,0,1,1.72.13,3.57,3.57,0,0,1,1.42.54,2.72,2.72,0,0,1,1,1.13,4.38,4.38,0,0,1,.35,1.93v45.3H175V90.54h-.16a20.93,20.93,0,0,1-2.28-.12,3.58,3.58,0,0,1-1.43-.51,2.64,2.64,0,0,1-1-1.11,4.43,4.43,0,0,1-.36-1.93V72.65c0-.14,0-.34,0-.6s0-.54,0-.86,0-.66,0-1l0-1c0-.81-.08-1.69-.11-2.64h.21a10.83,10.83,0,0,0,1.37,2A8.26,8.26,0,0,0,173,69.93a8.37,8.37,0,0,0,2.3,1,11,11,0,0,0,2.85.35,11.94,11.94,0,0,0,4.77-.9,8.52,8.52,0,0,0,3.48-2.75,13,13,0,0,0,2.14-4.74m5.38,25.38a5.13,5.13,0,0,1-.59,2.58,2,2,0,0,1-1.87,1,3.2,3.2,0,0,1-2.22-.84V85.85a3.41,3.41,0,0,1,2.3-1,2,2,0,0,1,1.77,1,4.62,4.62,0,0,1,.61,2.5m1.6-.28a4.85,4.85,0,0,0-1.06-3.31A3.26,3.26,0,0,0,192,83.59a3.92,3.92,0,0,0-2.73,1.18V80.12l-2.86.35c0,.54.12.83.48.86l.88.09V92l1.45.51a5,5,0,0,0,2,.44,4,4,0,0,0,3.23-1.38A5.38,5.38,0,0,0,195.54,88m19.23-31.91a32.52,32.52,0,0,1-.39,5.35,11.59,11.59,0,0,1-1.26,3.87,6.12,6.12,0,0,1-2.29,2.36,8,8,0,0,1-6.93,0,6.19,6.19,0,0,1-2.32-2.36,12,12,0,0,1-1.29-3.87,32.44,32.44,0,0,1-.4-5.35,31.88,31.88,0,0,1,.4-5.32,11.65,11.65,0,0,1,1.28-3.82,5.82,5.82,0,0,1,2.29-2.3,7.05,7.05,0,0,1,3.46-.78,7.15,7.15,0,0,1,3.47.78,5.78,5.78,0,0,1,2.3,2.3,11.42,11.42,0,0,1,1.28,3.82,30.85,30.85,0,0,1,.4,5.32m2,11.44q3.25-3.75,3.26-11.44a22.86,22.86,0,0,0-.87-6.67,12.74,12.74,0,0,0-2.5-4.71,10.07,10.07,0,0,0-4-2.79,14.47,14.47,0,0,0-5.3-.92q-6.33,0-9.56,3.73t-3.24,11.36a23,23,0,0,0,.87,6.69,12.85,12.85,0,0,0,2.5,4.75,10.14,10.14,0,0,0,4,2.82,14,14,0,0,0,5.29.94q6.28,0,9.55-3.76m5.69,20.75a5.13,5.13,0,0,1-.58,2.58,2,2,0,0,1-1.87,1,3.2,3.2,0,0,1-2.22-.84V85.85a3.41,3.41,0,0,1,2.3-1,2,2,0,0,1,1.76,1,4.54,4.54,0,0,1,.61,2.5m.55-3.59a3.29,3.29,0,0,0-2.49-1.08,3.9,3.9,0,0,0-2.73,1.18V80.12l-2.87.35c0,.54.13.83.49.86l.88.09V92l1.45.51a4.94,4.94,0,0,0,2,.44A3.91,3.91,0,0,0,223,91.59,5.33,5.33,0,0,0,224.11,88a4.9,4.9,0,0,0-1.06-3.31m-.57-13.94h15.46V68.44h-.69a10.61,10.61,0,0,1-1.74-.13,3.61,3.61,0,0,1-1.43-.54,2.8,2.8,0,0,1-1-1.19,5.09,5.09,0,0,1-.34-2V29.32h-10.3v2.29h.69a11.71,11.71,0,0,1,1.72.12,3.46,3.46,0,0,1,1.42.52,2.76,2.76,0,0,1,1,1.13,4.4,4.4,0,0,1,.36,1.93V64.53a4.89,4.89,0,0,1-.36,2,2.88,2.88,0,0,1-1,1.19,3.46,3.46,0,0,1-1.41.54,10.61,10.61,0,0,1-1.74.13h-.69Zm14.65,20a4.66,4.66,0,0,1-.63-2.54,4.75,4.75,0,0,1,.62-2.54,2,2,0,0,1,1.8-1,1.54,1.54,0,0,1,1.28.52,2,2,0,0,1,.44,1.22,1.19,1.19,0,0,0,.81-.23.94.94,0,0,0,.35-.83,1.52,1.52,0,0,0-.71-1.32,3.32,3.32,0,0,0-1.9-.49A3.84,3.84,0,0,0,236,85a5.21,5.21,0,0,0-1.13,3.5,5.11,5.11,0,0,0,1,3.3A3.31,3.31,0,0,0,238.63,93a4.78,4.78,0,0,0,2.25-.53c.69-.36,1-.72,1-1.08a.57.57,0,0,0-.29-.53,3.84,3.84,0,0,1-2.5.94,2.18,2.18,0,0,1-2-1m16.52-56.51a5.21,5.21,0,0,0,0-3.19,2.88,2.88,0,0,0-.67-1,2.3,2.3,0,0,0-1-.56,4.56,4.56,0,0,0-1.19-.16,4.7,4.7,0,0,0-1.23.16,2.46,2.46,0,0,0-1,.56,2.64,2.64,0,0,0-.67,1,5.42,5.42,0,0,0,0,3.19,2.57,2.57,0,0,0,.67,1,2.37,2.37,0,0,0,1,.57,4,4,0,0,0,1.23.18,3.85,3.85,0,0,0,1.19-.18,2.21,2.21,0,0,0,1-.57,2.79,2.79,0,0,0,.67-1M243.29,70.73h15.48V68.44h-.72a10.53,10.53,0,0,1-1.72-.13,3.55,3.55,0,0,1-1.43-.54,2.88,2.88,0,0,1-1-1.19,4.89,4.89,0,0,1-.36-2v-23h-9.74V43.8H244a11.67,11.67,0,0,1,1.72.13,3.62,3.62,0,0,1,1.42.54,2.7,2.7,0,0,1,1,1.13,4.37,4.37,0,0,1,.36,1.93V64.8a4.4,4.4,0,0,1-.36,1.93,2.56,2.56,0,0,1-1,1.1,3.74,3.74,0,0,1-1.42.49,11.71,11.71,0,0,1-1.72.12h-.71ZM260.5,91.52a.66.66,0,0,0-.11-.36.43.43,0,0,0-.24-.19,3.72,3.72,0,0,1-1,.63,3,3,0,0,1-1.05.16.85.85,0,0,1-.84-.43A2.8,2.8,0,0,1,257,90V84.81h2.86c.33-.1.48-.41.45-1H257V81.41l-1.51.28v2.17h-.75c-.44,0-.65.32-.61,1h1.36v5.26a4.06,4.06,0,0,0,.49,2.16,2,2,0,0,0,1.82.76,4,4,0,0,0,1.79-.45c.61-.31.92-.65.92-1m3-4.37a3.78,3.78,0,0,1,.82-1.85,1.81,1.81,0,0,1,1.4-.65,1.43,1.43,0,0,1,1.26.65,3.49,3.49,0,0,1,.48,1.85Zm-.55-2.23a5.2,5.2,0,0,0-1.17,3.58,4.87,4.87,0,0,0,1,3.36A3.57,3.57,0,0,0,265.53,93a4.58,4.58,0,0,0,2.26-.53c.66-.36,1-.72,1-1.08a.56.56,0,0,0-.25-.53,3.94,3.94,0,0,1-2.51.94c-1.76,0-2.65-1.08-2.65-3.24a4.17,4.17,0,0,1,0-.44H269v-.92a4.15,4.15,0,0,0-.74-2.54,2.85,2.85,0,0,0-2.45-1,3.68,3.68,0,0,0-2.86,1.33m4.72-35.22a4,4,0,0,1-.37-1.8,5.2,5.2,0,0,1,.29-1.76,3.68,3.68,0,0,1,.92-1.38,4.4,4.4,0,0,1,1.61-.91,7.85,7.85,0,0,1,2.37-.32A4.13,4.13,0,0,1,276,45.05a7,7,0,0,1,1.14,4.26,4.33,4.33,0,0,0,2.91-.89,3,3,0,0,0,1-2.38,4,4,0,0,0-.5-1.93,4.53,4.53,0,0,0-1.52-1.6,8.49,8.49,0,0,0-2.5-1.08,13.58,13.58,0,0,0-3.43-.4,16.14,16.14,0,0,0-4.21.51A10,10,0,0,0,265.67,43a6.68,6.68,0,0,0-2.09,2.4,7.29,7.29,0,0,0-.73,3.3,8.38,8.38,0,0,0,.51,3.08,6.71,6.71,0,0,0,1.51,2.3A11.78,11.78,0,0,0,267.44,56c1,.57,2.26,1.17,3.66,1.79s2.41,1.08,3.28,1.52a11.22,11.22,0,0,1,2.06,1.3A3.72,3.72,0,0,1,277.5,62a4.33,4.33,0,0,1,.31,1.74,4.91,4.91,0,0,1-.4,2,4.26,4.26,0,0,1-1.16,1.57,5.4,5.4,0,0,1-1.87,1,8.49,8.49,0,0,1-2.59.36,6.47,6.47,0,0,1-2.78-.55,4.77,4.77,0,0,1-1.82-1.49,5.91,5.91,0,0,1-1-2.19,11.55,11.55,0,0,1-.3-2.69,4,4,0,0,0-1.07.17,3.21,3.21,0,0,0-1.12.6,3.42,3.42,0,0,0-.88,1.16,4.1,4.1,0,0,0-.36,1.82,4.82,4.82,0,0,0,.64,2.52,5.28,5.28,0,0,0,1.81,1.8,8.76,8.76,0,0,0,2.83,1.1,17.65,17.65,0,0,0,3.72.36,16.73,16.73,0,0,0,4.4-.54,9.52,9.52,0,0,0,3.39-1.61,7.46,7.46,0,0,0,2.19-2.67,9.5,9.5,0,0,0,.29-6.73,6.63,6.63,0,0,0-1.48-2.35,10.88,10.88,0,0,0-2.54-1.91,34.94,34.94,0,0,0-3.7-1.79c-1.21-.49-2.24-.94-3.1-1.34a10.48,10.48,0,0,1-2.1-1.24,4.14,4.14,0,0,1-1.19-1.39" transform="translate(-28.17 -29.32)"/></svg>